<svg width="171" height="500" viewBox="0 0 171 500" fill="none" xmlns="http://www.w3.org/2000/svg">
<rect x="160" width="500" height="160" transform="rotate(90 160 0)" fill="#D9D9D9"/>
<path d="M62 17V12C62 11.4477 61.5523 11 61 11L21 11C20.4477 11 20 11.4477 20 12V19C20 19.5523 20.4477 20 21 20H25C25.5523 20 26 20.4477 26 21V31.5C26 32.0523 25.5523 32.5 25 32.5L19 32.5C18.4477 32.5 18 32.9477 18 33.5L18 116.5C18 117.052 18.4477 117.5 19 117.5L32.5 117.5C33.0523 117.5 33.5 117.948 33.5 118.5L33.5 194C33.5 194.552 33.9477 195 34.5 195H38C38.5523 195 39 195.448 39 196L39 212C39 212.552 38.5523 213 38 213H34.5C33.9477 213 33.5 213.448 33.5 214V238.5C33.5 239.052 33.0523 239.5 32.5 239.5H21C20.4477 239.5 20 239.948 20 240.5L20 374C20 374.552 20.4477 375 21 375H27.5C28.0523 375 28.5 375.448 28.5 376V392.5C28.5 393.052 28.0523 393.5 27.5 393.5H19C18.4477 393.5 18 393.948 18 394.5L18 434C18 434.552 18.4477 435 19 435H31C31.5523 435 32 435.448 32 436L32 446C32 446.552 32.4477 447 33 447H111C111.552 447 112 447.448 112 448V462.5C112 463.052 112.448 463.5 113 463.5H143C143.552 463.5 144 463.052 144 462.5V431C144 430.448 143.552 430 143 430H133.5C132.948 430 132.5 429.552 132.5 429V416.5C132.5 415.948 132.948 415.5 133.5 415.5H145C145.552 415.5 146 415.052 146 414.5L146 73.5C146 72.9477 145.552 72.5 145 72.5H133.5C132.948 72.5 132.5 72.9477 132.5 73.5V87C132.5 87.5523 132.052 88 131.5 88L84 88C83.4477 88 83 87.5523 83 87L83 25C83 24.4477 82.5523 24 82 24H78.5C77.9477 24 77.5 24.4477 77.5 25V27C77.5 27.5523 77.0523 28 76.5 28H61C60.4477 28 60 27.5523 60 27V25C60 24.4477 59.5523 24 59 24L51.5 24C50.9477 24 50.5 23.5523 50.5 23V19C50.5 18.4477 50.9477 18 51.5 18L61 18C61.5523 18 62 17.5523 62 17Z" fill="white" stroke="#878787"/>
<path d="M123.009 381.509L125.491 116.009C125.496 115.453 125.047 115 124.491 115H109.5C108.948 115 108.5 115.448 108.5 116V152.5C108.5 153.052 108.052 153.5 107.5 153.5H75C74.4477 153.5 74 153.948 74 154.5L74 177.5C74 178.052 74.4477 178.5 75 178.5H92C92.5523 178.5 93 178.948 93 179.5V193C93 193.552 92.5523 194 92 194H88C87.4477 194 87 194.448 87 195L87 213C87 213.552 86.5523 214 86 214H80C79.4477 214 79 214.448 79 215V222.5C79 223.052 79.4477 223.5 80 223.5H87.5C88.0523 223.5 88.5 223.948 88.5 224.5V241.5C88.5 242.052 88.0523 242.5 87.5 242.5H73C72.4477 242.5 72 242.948 72 243.5V258C72 258.552 72.4477 259 73 259H107.5C108.052 259 108.5 259.448 108.5 260V283.5C108.5 284.052 108.052 284.5 107.5 284.5H70.5C69.9477 284.5 69.5 284.948 69.5 285.5V303C69.5 303.552 69.9477 304 70.5 304H82.5C83.0523 304 83.5 304.448 83.5 305L83.5 349.5C83.5 350.052 83.0523 350.5 82.5 350.5H60.5C59.9477 350.5 59.5 350.948 59.5 351.5V375.5C59.5 376.052 59.9477 376.5 60.5 376.5H99C99.5523 376.5 100 376.948 100 377.5V381.5C100 382.052 100.448 382.5 101 382.5H122.009C122.558 382.5 123.004 382.058 123.009 381.509Z" fill="#D9D9D9" stroke="#878787"/>
</svg>
